<?xml version="1.0" encoding="utf-8"?>
<!-- Generator: Adobe Illustrator 26.5.0, SVG Export Plug-In . SVG Version: 6.00 Build 0)  -->
<svg version="1.1" id="Layer_1" xmlns="http://www.w3.org/2000/svg" xmlns:xlink="http://www.w3.org/1999/xlink" x="0px" y="0px"
	 viewBox="0 0 24 24" style="enable-background:new 0 0 24 24;" xml:space="preserve">
<style type="text/css">
	.st0{fill:#FFFFFF;}
</style>
<path class="st0" d="M13.5,0c-0.4,0-0.7,0.2-1,0.4L7.1,6.2l-3.9,4.1c-0.6,0.6-1,1.3-1.2,2.1C2,12.6,2,12.8,1.9,13
	c-0.1,0.8-0.1,1.6,0.1,2.4c0.1,0.3,0.2,0.7,0.3,1c0.3,0.7,0.7,1.3,1.3,1.8l4.3,4.2l0,0c2.2,2.2,5.9,2.1,8.1-0.1l2.4-2.4
	c0.5-0.5,0.5-1.4,0-2c-0.5-0.5-1.4-0.5-1.9,0c0,0,0,0,0,0L14,20.4c-1.2,1.1-3,1.2-4.2,0l0,0l-4.3-4.2c-0.7-0.6-1-1.5-0.9-2.3
	c0-0.2,0-0.4,0.1-0.5C4.8,13,5,12.6,5.3,12.2l3.9-4.1c1.1-1.1,3.2-1.3,4.4-0.3l3.5,2.8c0.6,0.5,1.5,0.4,1.9-0.2
	c0.5-0.6,0.4-1.5-0.2-1.9l-3.5-2.8c-0.8-0.6-1.8-1-2.8-1.2l2-2.2c0.5-0.6,0.5-1.4-0.1-2C14.2,0.1,13.8,0,13.5,0z M10.6,12.8
	c-0.8,0-1.4,0.6-1.4,1.4c0,0,0,0,0,0c0,0.8,0.6,1.4,1.4,1.4c0,0,0,0,0,0h10.2c0.8,0,1.4-0.6,1.4-1.4c0,0,0,0,0,0
	c0-0.8-0.6-1.4-1.4-1.4c0,0,0,0,0,0H10.6z"/>
</svg>
