<?xml version="1.0" encoding="utf-8"?>
<!-- Generator: Adobe Illustrator 26.5.0, SVG Export Plug-In . SVG Version: 6.00 Build 0)  -->
<svg version="1.1" id="Layer_1" xmlns="http://www.w3.org/2000/svg" xmlns:xlink="http://www.w3.org/1999/xlink" x="0px" y="0px"
	 viewBox="0 0 16 16" style="enable-background:new 0 0 16 16;" xml:space="preserve">
<style type="text/css">
	.st0{fill:#FFFFFF;}
</style>
<path class="st0" d="M14.8,14.8L14.8,14.8L14.8,14.8l0-5c0-2.5-0.5-4.4-3.4-4.4c-1.4,0-2.3,0.8-2.7,1.5h0V5.7H6v9.1h2.8v-4.5
	C8.8,9.1,9.1,8,10.5,8C12,8,12,9.3,12,10.4v4.5H14.8z"/>
<path class="st0" d="M1.4,5.7h2.8v9.1H1.4V5.7z"/>
<path class="st0" d="M2.8,1.2c-0.9,0-1.6,0.7-1.6,1.6c0,0.9,0.7,1.7,1.6,1.7c0.9,0,1.6-0.8,1.6-1.7C4.4,1.9,3.7,1.2,2.8,1.2L2.8,1.2
	z"/>
</svg>
