<svg version="1.1" id="Layer_1" xmlns="http://www.w3.org/2000/svg" xmlns:xlink="http://www.w3.org/1999/xlink" x="0px" y="0px"
	 width="100%" viewBox="0 0 771 895" enable-background="new 0 0 771 895" xml:space="preserve">
<path fill="#FFFFFF" opacity="1.000000" stroke="none" 
	d="
M1.000000,226.000000 
	C1.000000,151.026413 1.000000,76.052818 1.000000,1.039616 
	C257.883087,1.039616 514.766174,1.039616 772.000000,1.039616 
	C772.000000,76.022964 772.000000,151.046463 771.663391,226.436966 
	C758.667969,219.466400 746.070679,212.017639 733.268860,204.938675 
	C731.749268,204.098373 728.895386,204.796829 727.040833,205.629837 
	C723.800903,207.085144 720.878540,209.236542 717.785339,211.031052 
	C703.283569,219.444107 688.772522,227.841248 674.257874,236.232132 
	C656.504883,246.495071 638.757202,256.767273 620.984253,266.995483 
	C606.595093,275.276337 592.141357,283.445343 577.771545,291.759308 
	C559.880371,302.110626 542.077881,312.615326 524.176941,322.949463 
	C509.800751,331.248749 495.287933,339.311523 480.920624,347.625885 
	C463.029083,357.979736 445.265472,368.554779 427.370636,378.902832 
	C411.312042,388.189026 395.112762,397.231628 379.044434,406.501129 
	C360.577148,417.154510 342.193359,427.952637 323.758820,438.662933 
	C307.155914,448.309052 290.545441,457.942322 273.911804,467.535339 
	C269.102417,470.308990 264.201691,472.924194 259.000122,475.801636 
	C259.000122,441.280334 258.967926,407.450806 259.101227,373.621948 
	C259.107483,372.034210 260.166779,369.760773 261.449829,368.979370 
	C270.064941,363.733032 278.864868,358.789246 287.621246,353.775940 
	C306.266449,343.100952 324.959900,332.509583 343.563263,321.762268 
	C368.365662,307.433807 393.086548,292.964355 417.871124,278.604950 
	C431.954926,270.445221 446.116180,262.419312 460.205841,254.269730 
	C476.408844,244.897781 492.544373,235.409088 508.758911,226.057281 
	C524.828979,216.788757 540.978516,207.658005 557.060913,198.410828 
	C573.564087,188.921738 590.040466,179.385910 606.505127,169.830261 
	C617.332153,163.546600 628.117737,157.191574 639.645813,150.444824 
	C625.696411,142.397400 612.351257,134.703018 599.010498,127.000923 
	C585.199463,119.027367 571.341553,111.132545 557.635376,102.982567 
	C555.389526,101.647156 553.881836,101.355759 551.609802,102.696640 
	C542.782898,107.905884 533.839111,112.916801 524.944336,118.011253 
	C510.537689,126.262627 496.108765,134.475525 481.738129,142.789185 
	C463.846985,153.139557 446.029449,163.617325 428.135315,173.962524 
	C412.073914,183.248138 395.925232,192.382751 379.864014,201.668671 
	C363.658386,211.038101 347.546967,220.570663 331.331573,229.923050 
	C315.262329,239.191147 299.078857,248.261200 283.011169,257.531921 
	C264.544281,268.186890 246.155670,278.977417 227.721664,289.689484 
	C211.120087,299.336700 194.578735,309.092590 177.824738,318.468018 
	C174.727997,320.200958 173.934906,321.967255 173.937500,325.232330 
	C174.014542,421.725342 174.000000,518.218384 174.000000,614.711487 
	C174.000000,616.340088 174.000000,617.968750 174.000000,621.218750 
	C178.900528,619.454773 183.190781,618.557495 186.819107,616.495483 
	C205.353745,605.962341 223.686493,595.074829 242.150284,584.415894 
	C258.359680,575.058472 274.688782,565.908264 290.892914,556.541809 
	C310.897522,544.978516 330.786560,533.215088 350.801056,521.669006 
	C371.665497,509.632690 392.659698,497.821198 413.524109,485.784729 
	C435.937103,472.854889 458.233978,459.723785 480.639923,446.781494 
	C499.243958,436.035339 517.971069,425.502167 536.574402,414.754913 
	C561.376770,400.426453 586.114441,385.985992 610.875488,371.585907 
	C625.368164,363.157532 639.827271,354.671082 654.348389,346.291992 
	C664.996033,340.148010 675.719971,334.136169 687.000000,327.730316 
	C687.000000,330.104187 687.000000,331.881226 687.000000,333.658264 
	C687.000000,401.320068 687.000000,468.981873 687.000000,536.643677 
	C687.000000,564.308350 687.042908,591.973267 686.897949,619.637146 
	C686.888855,621.375305 685.894226,623.927551 684.546692,624.718262 
	C658.022034,640.282166 631.402832,655.685852 604.748413,671.027527 
	C583.731079,683.124512 562.592285,695.010803 541.594360,707.141052 
	C516.504333,721.635376 491.510376,736.296021 466.467957,750.872803 
	C452.121918,759.223389 437.786133,767.591980 423.401031,775.874878 
	C412.123810,782.368103 400.801422,788.784302 389.431732,795.113770 
	C388.076996,795.867981 385.927704,796.625549 384.782684,796.070251 
	C380.550690,794.017944 376.597565,791.394714 372.517975,789.023254 
	C359.011139,781.171692 345.530975,773.272217 331.923065,765.599548 
	C330.645599,764.879272 328.205231,765.034729 326.869385,765.786743 
	C312.123169,774.086975 297.453735,782.525696 282.834961,791.049561 
	C270.493835,798.245422 258.246613,805.602356 245.707001,812.983826 
	C245.623413,813.423828 245.790680,813.767944 246.100266,814.428955 
	C263.153900,824.496643 280.089478,834.205688 296.971161,844.007568 
	C325.542694,860.597046 354.055786,877.287537 382.693207,893.762146 
	C384.388641,894.737488 387.474213,895.080261 389.059204,894.192810 
	C408.652100,883.221924 428.115234,872.017761 447.553925,860.773499 
	C472.347717,846.431641 497.073944,831.972900 521.858093,817.614319 
	C535.941833,809.454956 550.104126,801.431519 564.192932,793.280945 
	C580.395081,783.907715 596.526917,774.412842 612.741455,765.061218 
	C628.811157,755.793091 644.964233,746.669678 661.046875,737.423828 
	C677.550171,727.936035 694.027100,718.401978 710.488342,708.841309 
	C724.281982,700.829956 737.987671,692.665955 751.829590,684.739380 
	C758.436462,680.955994 765.269409,677.567383 772.000000,674.000000 
	C772.000000,747.973755 772.000000,821.947571 772.000000,895.960693 
	C515.117310,895.960693 258.234619,895.960693 1.000000,895.960693 
	C1.000000,822.310364 1.000000,748.620239 1.369541,674.471558 
	C16.827505,682.674683 31.908983,691.348572 47.005890,699.995483 
	C74.399269,715.685181 101.844360,731.285156 129.188812,747.059570 
	C157.382309,763.323975 185.471497,779.769104 213.665268,796.032959 
	C214.618408,796.582764 216.444885,796.463562 217.463867,795.913879 
	C223.048660,792.901428 228.501205,789.644653 234.012283,786.494690 
	C250.260086,777.207886 266.553131,767.999512 282.755676,758.634460 
	C302.758759,747.072754 322.653900,735.324219 342.660187,723.768127 
	C361.262329,713.023010 379.986908,702.489929 398.588898,691.744568 
	C420.992249,678.803467 443.291687,665.682495 465.695221,652.741760 
	C484.297455,641.996704 503.024292,631.467346 521.625671,620.720764 
	C546.424866,606.393616 571.125671,591.895813 595.956299,577.623779 
	C598.918640,575.921082 600.086914,574.065430 600.072449,570.628174 
	C599.946716,540.800415 600.002258,510.971893 599.992371,481.143616 
	C599.991943,479.864349 599.879333,478.585114 599.799866,476.900635 
	C598.424866,477.448242 597.338867,477.732147 596.403381,478.275299 
	C580.362427,487.589844 564.374329,496.996063 548.304504,506.260406 
	C529.693176,516.989929 510.975433,527.534973 492.373322,538.280396 
	C469.970032,551.221436 447.666779,564.335632 425.269989,577.288025 
	C404.983429,589.020081 384.606445,600.595764 364.311096,612.312683 
	C341.197906,625.656311 318.125702,639.071045 295.045746,652.472290 
	C280.548737,660.889893 266.087341,669.368896 251.577713,677.764587 
	C240.878357,683.955444 230.186325,690.165039 219.340515,696.090820 
	C217.517365,697.086975 214.379196,697.667114 212.778412,696.773621 
	C195.302002,687.019043 177.993652,676.962280 160.673080,666.929871 
	C137.291534,653.386719 113.984383,639.713989 90.524857,626.307678 
	C87.100563,624.350830 85.899681,622.270386 85.903999,618.312134 
	C86.023750,508.497589 86.077087,398.682678 85.845642,288.868469 
	C85.828163,280.574951 86.169891,273.657104 95.520348,270.946960 
	C96.276596,270.727753 96.931900,270.161316 97.635132,269.757996 
	C120.220993,256.804138 142.846252,243.918381 165.382721,230.879150 
	C191.721771,215.639877 217.944824,200.200104 244.290802,184.972900 
	C265.284637,172.839066 286.434448,160.975128 307.429688,148.843704 
	C332.515869,134.348450 357.565826,119.787949 382.476044,104.994041 
	C385.554626,103.165710 387.692749,103.543709 390.304199,105.053940 
	C403.548981,112.713554 416.889313,120.214767 429.974945,128.136887 
	C432.535797,129.687256 434.059509,129.631622 436.416870,128.268494 
	C461.349335,113.851379 486.352814,99.557045 511.275513,85.123100 
	C513.116089,84.057129 514.483276,82.173683 516.067688,80.672966 
	C511.658875,77.435417 508.232025,74.460075 504.390472,72.184853 
	C493.333679,65.636230 482.090210,59.403770 470.954803,52.986855 
	C443.741364,37.304806 416.570801,21.547905 389.282562,5.997371 
	C387.788788,5.146128 385.192261,5.385971 383.439331,6.024551 
	C380.565765,7.071405 377.925110,8.797047 375.252838,10.350956 
	C355.279907,21.965136 335.357880,33.667305 315.351501,45.223492 
	C296.749298,55.968586 278.024933,66.502213 259.422852,77.247520 
	C237.019363,90.188683 214.719620,103.309418 192.315948,116.250275 
	C173.713669,126.995369 154.987274,137.525604 136.385529,148.271652 
	C111.585487,162.598389 86.850853,177.038361 62.092228,191.436783 
	C47.600883,199.864227 33.157375,208.374969 18.610853,216.705963 
	C12.854403,220.002747 6.876872,222.913483 1.000000,226.000000 
z"/>
<path fill="#00A4C1" opacity="1.000000" stroke="none" 
	d="
M772.000000,673.531311 
	C765.269409,677.567383 758.436462,680.955994 751.829590,684.739380 
	C737.987671,692.665955 724.281982,700.829956 710.488342,708.841309 
	C694.027100,718.401978 677.550171,727.936035 661.046875,737.423828 
	C644.964233,746.669678 628.811157,755.793091 612.741455,765.061218 
	C596.526917,774.412842 580.395081,783.907715 564.192932,793.280945 
	C550.104126,801.431519 535.941833,809.454956 521.858093,817.614319 
	C497.073944,831.972900 472.347717,846.431641 447.553925,860.773499 
	C428.115234,872.017761 408.652100,883.221924 389.059204,894.192810 
	C387.474213,895.080261 384.388641,894.737488 382.693207,893.762146 
	C354.055786,877.287537 325.542694,860.597046 296.971161,844.007568 
	C280.089478,834.205688 263.153900,824.496643 246.111954,814.122803 
	C245.973495,813.295898 245.965652,813.091919 245.957825,812.888000 
	C258.246613,805.602356 270.493835,798.245422 282.834961,791.049561 
	C297.453735,782.525696 312.123169,774.086975 326.869385,765.786743 
	C328.205231,765.034729 330.645599,764.879272 331.923065,765.599548 
	C345.530975,773.272217 359.011139,781.171692 372.517975,789.023254 
	C376.597565,791.394714 380.550690,794.017944 384.782684,796.070251 
	C385.927704,796.625549 388.076996,795.867981 389.431732,795.113770 
	C400.801422,788.784302 412.123810,782.368103 423.401031,775.874878 
	C437.786133,767.591980 452.121918,759.223389 466.467957,750.872803 
	C491.510376,736.296021 516.504333,721.635376 541.594360,707.141052 
	C562.592285,695.010803 583.731079,683.124512 604.748413,671.027527 
	C631.402832,655.685852 658.022034,640.282166 684.546692,624.718262 
	C685.894226,623.927551 686.888855,621.375305 686.897949,619.637146 
	C687.042908,591.973267 687.000000,564.308350 687.000000,536.643677 
	C687.000000,468.981873 687.000000,401.320068 687.000000,333.658264 
	C687.000000,331.881226 687.000000,330.104187 687.000000,327.730316 
	C675.719971,334.136169 664.996033,340.148010 654.348389,346.291992 
	C639.827271,354.671082 625.368164,363.157532 610.875488,371.585907 
	C586.114441,385.985992 561.376770,400.426453 536.574402,414.754913 
	C517.971069,425.502167 499.243958,436.035339 480.639923,446.781494 
	C458.233978,459.723785 435.937103,472.854889 413.524109,485.784729 
	C392.659698,497.821198 371.665497,509.632690 350.801056,521.669006 
	C330.786560,533.215088 310.897522,544.978516 290.892914,556.541809 
	C274.688782,565.908264 258.359680,575.058472 242.150284,584.415894 
	C223.686493,595.074829 205.353745,605.962341 186.819107,616.495483 
	C183.190781,618.557495 178.900528,619.454773 174.000000,621.218750 
	C174.000000,617.968750 174.000000,616.340088 174.000000,614.711487 
	C174.000000,518.218384 174.014542,421.725342 173.937500,325.232330 
	C173.934906,321.967255 174.727997,320.200958 177.824738,318.468018 
	C194.578735,309.092590 211.120087,299.336700 227.721664,289.689484 
	C246.155670,278.977417 264.544281,268.186890 283.011169,257.531921 
	C299.078857,248.261200 315.262329,239.191147 331.331573,229.923050 
	C347.546967,220.570663 363.658386,211.038101 379.864014,201.668671 
	C395.925232,192.382751 412.073914,183.248138 428.135315,173.962524 
	C446.029449,163.617325 463.846985,153.139557 481.738129,142.789185 
	C496.108765,134.475525 510.537689,126.262627 524.944336,118.011253 
	C533.839111,112.916801 542.782898,107.905884 551.609802,102.696640 
	C553.881836,101.355759 555.389526,101.647156 557.635376,102.982567 
	C571.341553,111.132545 585.199463,119.027367 599.010498,127.000923 
	C612.351257,134.703018 625.696411,142.397400 639.645813,150.444824 
	C628.117737,157.191574 617.332153,163.546600 606.505127,169.830261 
	C590.040466,179.385910 573.564087,188.921738 557.060913,198.410828 
	C540.978516,207.658005 524.828979,216.788757 508.758911,226.057281 
	C492.544373,235.409088 476.408844,244.897781 460.205841,254.269730 
	C446.116180,262.419312 431.954926,270.445221 417.871124,278.604950 
	C393.086548,292.964355 368.365662,307.433807 343.563263,321.762268 
	C324.959900,332.509583 306.266449,343.100952 287.621246,353.775940 
	C278.864868,358.789246 270.064941,363.733032 261.449829,368.979370 
	C260.166779,369.760773 259.107483,372.034210 259.101227,373.621948 
	C258.967926,407.450806 259.000122,441.280334 259.000122,475.801636 
	C264.201691,472.924194 269.102417,470.308990 273.911804,467.535339 
	C290.545441,457.942322 307.155914,448.309052 323.758820,438.662933 
	C342.193359,427.952637 360.577148,417.154510 379.044434,406.501129 
	C395.112762,397.231628 411.312042,388.189026 427.370636,378.902832 
	C445.265472,368.554779 463.029083,357.979736 480.920624,347.625885 
	C495.287933,339.311523 509.800751,331.248749 524.176941,322.949463 
	C542.077881,312.615326 559.880371,302.110626 577.771545,291.759308 
	C592.141357,283.445343 606.595093,275.276337 620.984253,266.995483 
	C638.757202,256.767273 656.504883,246.495071 674.257874,236.232132 
	C688.772522,227.841248 703.283569,219.444107 717.785339,211.031052 
	C720.878540,209.236542 723.800903,207.085144 727.040833,205.629837 
	C728.895386,204.796829 731.749268,204.098373 733.268860,204.938675 
	C746.070679,212.017639 758.667969,219.466400 771.663391,226.901978 
	C772.000000,375.687561 772.000000,524.375122 772.000000,673.531311 
z"/>
<path fill="#00A4C1" opacity="1.000000" stroke="none" 
	d="
M1.000000,226.468658 
	C6.876872,222.913483 12.854403,220.002747 18.610853,216.705963 
	C33.157375,208.374969 47.600883,199.864227 62.092228,191.436783 
	C86.850853,177.038361 111.585487,162.598389 136.385529,148.271652 
	C154.987274,137.525604 173.713669,126.995369 192.315948,116.250275 
	C214.719620,103.309418 237.019363,90.188683 259.422852,77.247520 
	C278.024933,66.502213 296.749298,55.968586 315.351501,45.223492 
	C335.357880,33.667305 355.279907,21.965136 375.252838,10.350956 
	C377.925110,8.797047 380.565765,7.071405 383.439331,6.024551 
	C385.192261,5.385971 387.788788,5.146128 389.282562,5.997371 
	C416.570801,21.547905 443.741364,37.304806 470.954803,52.986855 
	C482.090210,59.403770 493.333679,65.636230 504.390472,72.184853 
	C508.232025,74.460075 511.658875,77.435417 516.067688,80.672966 
	C514.483276,82.173683 513.116089,84.057129 511.275513,85.123100 
	C486.352814,99.557045 461.349335,113.851379 436.416870,128.268494 
	C434.059509,129.631622 432.535797,129.687256 429.974945,128.136887 
	C416.889313,120.214767 403.548981,112.713554 390.304199,105.053940 
	C387.692749,103.543709 385.554626,103.165710 382.476044,104.994041 
	C357.565826,119.787949 332.515869,134.348450 307.429688,148.843704 
	C286.434448,160.975128 265.284637,172.839066 244.290802,184.972900 
	C217.944824,200.200104 191.721771,215.639877 165.382721,230.879150 
	C142.846252,243.918381 120.220993,256.804138 97.635132,269.757996 
	C96.931900,270.161316 96.276596,270.727753 95.520348,270.946960 
	C86.169891,273.657104 85.828163,280.574951 85.845642,288.868469 
	C86.077087,398.682678 86.023750,508.497589 85.903999,618.312134 
	C85.899681,622.270386 87.100563,624.350830 90.524857,626.307678 
	C113.984383,639.713989 137.291534,653.386719 160.673080,666.929871 
	C177.993652,676.962280 195.302002,687.019043 212.778412,696.773621 
	C214.379196,697.667114 217.517365,697.086975 219.340515,696.090820 
	C230.186325,690.165039 240.878357,683.955444 251.577713,677.764587 
	C266.087341,669.368896 280.548737,660.889893 295.045746,652.472290 
	C318.125702,639.071045 341.197906,625.656311 364.311096,612.312683 
	C384.606445,600.595764 404.983429,589.020081 425.269989,577.288025 
	C447.666779,564.335632 469.970032,551.221436 492.373322,538.280396 
	C510.975433,527.534973 529.693176,516.989929 548.304504,506.260406 
	C564.374329,496.996063 580.362427,487.589844 596.403381,478.275299 
	C597.338867,477.732147 598.424866,477.448242 599.799866,476.900635 
	C599.879333,478.585114 599.991943,479.864349 599.992371,481.143616 
	C600.002258,510.971893 599.946716,540.800415 600.072449,570.628174 
	C600.086914,574.065430 598.918640,575.921082 595.956299,577.623779 
	C571.125671,591.895813 546.424866,606.393616 521.625671,620.720764 
	C503.024292,631.467346 484.297455,641.996704 465.695221,652.741760 
	C443.291687,665.682495 420.992249,678.803467 398.588898,691.744568 
	C379.986908,702.489929 361.262329,713.023010 342.660187,723.768127 
	C322.653900,735.324219 302.758759,747.072754 282.755676,758.634460 
	C266.553131,767.999512 250.260086,777.207886 234.012283,786.494690 
	C228.501205,789.644653 223.048660,792.901428 217.463867,795.913879 
	C216.444885,796.463562 214.618408,796.582764 213.665268,796.032959 
	C185.471497,779.769104 157.382309,763.323975 129.188812,747.059570 
	C101.844360,731.285156 74.399269,715.685181 47.005890,699.995483 
	C31.908983,691.348572 16.827505,682.674683 1.369541,674.006470 
	C1.000000,524.979126 1.000000,375.958221 1.000000,226.468658 
z"/>
<path fill="#00A4C1" opacity="1.000000" stroke="none" 
	d="
M245.707001,812.983826 
	C245.965652,813.091919 245.973495,813.295898 245.969635,813.805969 
	C245.790680,813.767944 245.623413,813.423828 245.707001,812.983826 
z"/>
</svg>